<?xml version="1.0" encoding="utf-8"?>
<!-- Generator: Adobe Illustrator 25.0.0, SVG Export Plug-In . SVG Version: 6.00 Build 0)  -->
<svg version="1.1" id="레이어_1" xmlns="http://www.w3.org/2000/svg" xmlns:xlink="http://www.w3.org/1999/xlink" x="0px"
	 y="0px" viewBox="0 0 200 200" style="enable-background:new 0 0 200 200;" xml:space="preserve">
<style type="text/css">
	.st0{fill:#0023FF;}
</style>
<g>
	<path class="st0" d="M149.22,101.01l-69.48,44.14c1.28,0.59,2.59,1.12,3.91,1.6l65.36-41.53
		C149.14,103.82,149.21,102.42,149.22,101.01z"/>
	<path class="st0" d="M96.03,50.02L56.18,75.34c-1.01,1.87-1.9,3.8-2.66,5.77l48.87-31.05C100.27,49.91,98.15,49.9,96.03,50.02z"/>
	<path class="st0" d="M145.06,80.53l-82.1,52.16c0.78,0.88,1.58,1.73,2.41,2.55l80.97-51.44C145.96,82.7,145.53,81.61,145.06,80.53z
		"/>
	<path class="st0" d="M128.88,59.98l-77.64,49.33c0.25,1.18,0.53,2.36,0.87,3.53l79.61-50.58C130.79,61.46,129.85,60.7,128.88,59.98
		z"/>
	<path class="st0" d="M122.86,56.1l-72.57,46.11c0.08,1.28,0.21,2.56,0.39,3.84l75.5-47.97C125.08,57.37,123.98,56.71,122.86,56.1z"
		/>
	<path class="st0" d="M107.18,50.64L52,85.7c-0.43,1.57-0.79,3.16-1.07,4.76l61.02-38.77C110.38,51.27,108.79,50.92,107.18,50.64z"
		/>
	<path class="st0" d="M115.76,52.9L50.4,94.43c-0.13,1.4-0.2,2.81-0.21,4.22l69.48-44.14C118.39,53.91,117.08,53.37,115.76,52.9z"/>
	<path class="st0" d="M148.74,93.6l-75.5,47.97c1.08,0.7,2.18,1.36,3.31,1.98l72.57-46.11C149.04,96.16,148.92,94.88,148.74,93.6z"
		/>
	<path class="st0" d="M147.3,86.81L67.7,137.39c0.92,0.8,1.86,1.56,2.83,2.29l77.64-49.33C147.93,89.16,147.64,87.98,147.3,86.81z"
		/>
	<path class="st0" d="M142.08,74.71l-83.12,52.81c0.65,0.96,1.33,1.89,2.03,2.79l82.76-52.58
		C143.23,76.71,142.68,75.71,142.08,74.71z"/>
	<path class="st0" d="M126.58,142.13c5.04-3.2,9.29-7.18,12.7-11.7l-28.68,18.22C116.13,147.49,121.54,145.34,126.58,142.13z"/>
	<path class="st0" d="M134.03,64.41l-80.97,51.44c0.39,1.1,0.82,2.19,1.28,3.27l82.1-52.16C135.66,66.08,134.86,65.23,134.03,64.41z
		"/>
	<path class="st0" d="M72.82,57.51c-5.04,3.2-9.29,7.18-12.7,11.7L88.8,50.99C83.27,52.16,77.86,54.31,72.82,57.51z"/>
	<path class="st0" d="M148.47,109.19l-61.02,38.77c1.57,0.43,3.16,0.78,4.77,1.05l55.18-35.06
		C147.84,112.38,148.19,110.79,148.47,109.19z"/>
	<path class="st0" d="M138.41,69.34l-82.76,52.58c0.52,1.02,1.07,2.03,1.67,3.02l83.12-52.81
		C139.79,71.17,139.12,70.24,138.41,69.34z"/>
	<path class="st0" d="M145.89,118.54l-48.87,31.05c2.11,0.15,4.23,0.17,6.36,0.04l39.85-25.32
		C144.24,122.44,145.13,120.51,145.89,118.54z"/>
</g>
</svg>
